<?xml version="1.0" encoding="UTF-8"?>
<!-- Generated by Pixelmator Pro 3.7.1 -->
<svg width="512" height="512" viewBox="0 0 512 512" xmlns="http://www.w3.org/2000/svg">
    <g id="Group">
        <path id="Rounded-Rectangle" fill="#28612a" fill-rule="evenodd" stroke="none" d="M 0 158 C 0 212.123901 43.876095 256 98 256 L 158 256 C 212.123901 256 256 212.123901 256 158 L 256 98 C 256 43.876099 212.123901 0 158 0 L 98 0 C 43.876095 0 0 43.876099 0 98 Z"/>
        <path id="Rounded-Rectangle-copy-2" fill="#28612a" fill-rule="evenodd" stroke="none" d="M 256 158 C 256 212.123901 299.876099 256 354 256 L 414 256 C 468.123901 256 512 212.123901 512 158 L 512 98 C 512 43.876099 468.123901 0 414 0 L 354 0 C 299.876099 0 256 43.876099 256 98 Z"/>
        <path id="Rounded-Rectangle-copy-3" fill="#28612a" fill-rule="evenodd" stroke="none" d="M 0 414 C 0 468.123901 43.876095 512 98 512 L 158 512 C 212.123901 512 256 468.123901 256 414 L 256 354 C 256 299.876099 212.123901 256 158 256 L 98 256 C 43.876095 256 0 299.876099 0 354 Z"/>
        <path id="Rounded-Rectangle-copy" fill="#28612a" fill-rule="evenodd" stroke="none" d="M 256 414 C 256 468.123901 299.876099 512 354 512 L 414 512 C 468.123901 512 512 468.123901 512 414 L 512 354 C 512 299.876099 468.123901 256 414 256 L 354 256 C 299.876099 256 256 299.876099 256 354 Z"/>
        <text id="G" xml:space="preserve" x="13" y="213" font-family="Archivo SemiExpanded" font-size="247" font-weight="700" fill="#ffffff">G</text>
        <text id="text1" xml:space="preserve" x="269" y="469" font-family="Archivo SemiExpanded" font-size="247" font-weight="700" fill="#ffffff">G</text>
    </g>
</svg>
